<svg width="312" height="105" viewBox="0 0 312 105" fill="none" xmlns="http://www.w3.org/2000/svg">
<g clip-path="url(#clip0_464_200)">
<path d="M0.86 47.5C0.38 47.5 0 47.12 0 46.64V31.37C0 28.5 1.17 26.81 2.18 25.6C3.15 24.46 3.8 23.8 3.8 22.91C3.8 21.94 2.76 21.18 1.59 19.28C0.76 17.93 0 16.14 0 13.48V3.31996C0 2.83996 0.38 2.45996 0.86 2.45996C1.34 2.45996 1.72 2.83996 1.72 3.31996V13.48C1.72 15.73 2.34 17.25 3.03 18.39C3.86 19.74 5.1 20.84 5.45 22.22H23.31C23.79 20.84 25.07 19.77 25.94 18.21C26.53 17.14 26.94 15.83 26.94 13.96V3.31996C26.94 2.83996 27.32 2.45996 27.8 2.45996C28.28 2.45996 28.66 2.83996 28.66 3.31996V13.96C28.66 16.17 28.11 17.83 27.45 19.04C26.28 21.18 24.86 22.18 24.86 23.25C24.86 24.22 25.62 24.87 26.66 26.12C27.59 27.29 28.66 28.99 28.66 31.72V46.64C28.66 47.12 28.28 47.5 27.8 47.5C27.32 47.5 26.94 47.12 26.94 46.64V31.72C26.94 29.54 26.18 28.3 25.35 27.23C24.52 26.23 23.48 25.3 23.21 23.95H5.35C5 25.09 4.21 25.85 3.48 26.71C2.55 27.85 1.72 29.06 1.72 31.37V46.64C1.72 47.12 1.34 47.5 0.86 47.5Z" fill="white"/>
<path d="M39.3799 29.9499C39.3799 18.0699 43.4899 12.1599 51.2999 12.1599C59.1099 12.1599 62.8699 17.9299 62.8699 29.9499C62.8699 40.7299 59.2399 47.8099 51.2999 47.8099C42.5899 47.8099 39.3799 40.1799 39.3799 29.9499ZM61.1399 29.9499C61.1399 18.8599 57.8899 13.8899 51.2899 13.8899C44.6899 13.8899 41.0999 18.9999 41.0999 29.9499C41.0999 39.6199 43.8999 46.0799 51.2899 46.0799C57.9899 46.0799 61.1399 39.9999 61.1399 29.9499Z" fill="white"/>
<path d="M73.7599 12.2299C74.2399 12.2299 74.6199 12.6099 74.6199 13.0899C74.6199 14.3299 74.9699 15.4399 75.3499 16.1999C75.6999 16.8599 76.1099 17.5499 76.3199 18.5099C77.2199 17.7799 77.7699 16.6099 78.4999 15.4999C79.6099 13.7699 80.8799 12.1799 83.7899 12.1799C86.6999 12.1799 88.0399 14.9099 89.0099 17.0499C89.9099 19.1599 90.5599 20.6799 92.0499 20.6799C93.0499 20.6799 93.8799 18.6399 95.4699 16.2599C96.7799 14.2199 99.0299 12.1499 102.03 12.1499C105.62 12.1499 107.7 14.1899 108.7 17.2299C109.74 20.2699 109.81 24.4799 109.81 28.6999V46.6599C109.81 47.1399 109.43 47.5199 108.95 47.5199C108.47 47.5199 108.09 47.1399 108.09 46.6599V28.6999C108.09 24.4899 108.02 20.6199 107.05 17.7799C106.26 15.3599 104.74 13.8799 102.04 13.8799C99.7899 13.8799 98.0999 15.3999 96.9299 17.2299C95.6899 19.0999 94.6499 21.5499 92.9599 22.2399V46.6599C92.9599 47.1399 92.5799 47.5199 92.0999 47.5199C91.6199 47.5199 91.2399 47.1399 91.2399 46.6599V22.3099C89.1999 21.8599 88.2299 19.6199 87.4399 17.7499C86.4699 15.6099 85.6799 13.9199 83.8099 13.9199C81.8099 13.9199 81.0099 14.8899 79.9799 16.4799C79.2199 17.6199 78.3899 19.5899 76.4199 20.4899C76.2799 21.4199 75.8999 22.2499 75.5599 23.1199C75.0799 24.3599 74.6599 25.8799 74.6599 28.8899V46.5099C74.6599 46.9899 74.2799 47.3699 73.7999 47.3699C73.3199 47.3699 72.9399 46.9899 72.9399 46.5099V28.8899C72.9399 25.6799 73.4899 23.7399 73.9799 22.4999C74.4299 21.2899 74.7699 20.6299 74.7699 19.6299C74.7699 18.6299 74.3899 17.9699 73.8699 16.9699C73.4199 16.0699 72.9399 14.6199 72.9399 13.0999C72.9399 12.6199 73.3199 12.2399 73.7999 12.2399L73.7599 12.2299Z" fill="white"/>
<path d="M119.81 29.9499C119.81 18.0699 123.92 12.1599 131.73 12.1599C139.54 12.1599 143.3 17.9299 143.3 29.9499C143.3 40.7299 139.67 47.8099 131.73 47.8099C123.02 47.8099 119.81 40.1799 119.81 29.9499ZM141.57 29.9499C141.57 18.8599 138.32 13.8899 131.72 13.8899C125.12 13.8899 121.53 18.9999 121.53 29.9499C121.53 39.6199 124.33 46.0799 131.72 46.0799C138.42 46.0799 141.57 39.9999 141.57 29.9499Z" fill="white"/>
<path d="M154.18 12.2299C154.66 12.2299 155.04 12.6099 155.04 13.0899C155.04 14.3299 155.39 15.4399 155.77 16.1999C156.05 16.7199 156.36 17.2699 156.6 17.9999C159.26 15.6899 161.44 12.1599 166.13 12.1599C173.38 12.1599 174.25 18.4099 174.25 26.6699V46.4999C174.25 46.9799 173.87 47.3599 173.39 47.3599C172.91 47.3599 172.53 46.9799 172.53 46.4999V26.6699C172.53 18.7599 171.87 13.8899 166.14 13.8899C161.82 13.8899 160.54 17.3099 156.88 19.9699C156.81 21.2099 156.36 22.0799 155.95 23.1099C155.47 24.3499 155.05 25.8699 155.05 28.8799V46.4999C155.05 46.9799 154.67 47.3599 154.19 47.3599C153.71 47.3599 153.33 46.9799 153.33 46.4999V28.8799C153.33 25.6699 153.88 23.7299 154.37 22.4899C154.82 21.2799 155.16 20.6199 155.16 19.6199C155.16 18.6199 154.78 17.9599 154.26 16.9599C153.81 16.0599 153.33 14.6099 153.33 13.0899C153.33 12.6099 153.71 12.2299 154.19 12.2299H154.18Z" fill="white"/>
<path d="M204.03 37.9701C204.55 37.9701 204.96 38.4501 204.89 38.9701C204.44 41.9401 202.09 47.16 195.29 47.16C188.49 47.16 184.27 41.01 184.27 29.09C184.27 17.17 189.31 12.3 194.88 12.3C200.45 12.3 203.41 15.55 203.97 20.25C204.04 20.77 203.66 21.22 203.11 21.22C202.66 21.22 202.32 20.91 202.25 20.46C201.77 16.52 199.31 14.03 194.89 14.03C190.47 14.03 186.01 18.14 186.01 29.09C186.01 40.04 189.46 45.43 195.3 45.43C201.14 45.43 202.8 41.18 203.18 38.69C203.25 38.24 203.59 37.96 204.04 37.96L204.03 37.9701Z" fill="white"/>
<path d="M214.74 12.78C215.22 12.78 215.6 13.16 215.6 13.64V33.02C215.6 40.93 216.26 45.8 221.92 45.8C226.27 45.8 227.76 42.21 231.32 39.69C231.46 38.76 231.84 37.93 232.18 37.06C232.66 35.82 233.08 34.3 233.08 31.29V13.68C233.08 13.2 233.46 12.82 233.94 12.82C234.42 12.82 234.8 13.2 234.8 13.68V31.3C234.8 34.51 234.25 36.45 233.76 37.69C233.31 38.9 232.97 39.56 232.97 40.56C232.97 41.56 233.35 42.22 233.87 43.22C234.32 44.12 234.8 45.57 234.8 47.09C234.8 47.57 234.42 47.95 233.94 47.95C233.46 47.95 233.08 47.57 233.08 47.09C233.08 45.85 232.73 44.74 232.35 43.98C232.04 43.39 231.62 42.7 231.38 41.8C228.82 44.08 226.68 47.53 221.91 47.53C214.72 47.53 213.86 41.28 213.86 33.02V13.65C213.86 13.17 214.24 12.79 214.72 12.79L214.74 12.78Z" fill="white"/>
<path d="M247.42 47.81C246.94 47.81 246.56 47.43 246.56 46.95V0.86C246.56 0.38 246.94 0 247.42 0C247.9 0 248.28 0.38 248.28 0.86V46.94C248.28 47.42 247.9 47.8 247.42 47.8V47.81Z" fill="white"/>
<path d="M260.89 12.78C261.37 12.78 261.75 13.16 261.75 13.64V33.02C261.75 40.93 262.41 45.8 268.07 45.8C272.42 45.8 273.91 42.21 277.47 39.69C277.61 38.76 277.99 37.93 278.33 37.06C278.81 35.82 279.23 34.3 279.23 31.29V13.68C279.23 13.2 279.61 12.82 280.09 12.82C280.57 12.82 280.95 13.2 280.95 13.68V31.3C280.95 34.51 280.4 36.45 279.91 37.69C279.46 38.9 279.12 39.56 279.12 40.56C279.12 41.56 279.5 42.22 280.02 43.22C280.47 44.12 280.95 45.57 280.95 47.09C280.95 47.57 280.57 47.95 280.09 47.95C279.61 47.95 279.23 47.57 279.23 47.09C279.23 45.85 278.88 44.74 278.5 43.98C278.19 43.39 277.77 42.7 277.53 41.8C274.97 44.08 272.83 47.53 268.06 47.53C260.87 47.53 260.01 41.28 260.01 33.02V13.65C260.01 13.17 260.39 12.79 260.87 12.79L260.89 12.78Z" fill="white"/>
<path d="M290.29 41.21C290.29 40.73 290.67 40.35 291.15 40.35C291.5 40.35 291.77 40.56 291.91 40.83C292.81 42.59 295.64 46.05 300.93 46.05C305.32 46.05 310.15 43.49 310.02 38.21C309.88 33.03 305.46 31.72 300.66 29.99C296.17 28.37 291.47 26.4 291.47 20.32C291.47 15.28 295.62 12.1 301.11 12.2C306.22 12.3 309.57 15.52 310.44 18.87C310.58 19.39 310.16 19.94 309.61 19.94C309.2 19.94 308.88 19.7 308.78 19.28C308.05 16.55 305.39 14.03 301.04 13.93C296.38 13.83 293.2 16.38 293.2 20.32C293.2 25.23 296.93 26.78 301.21 28.33C306.01 30.06 311.61 31.78 311.75 38.14C311.89 44.57 306.05 47.78 300.94 47.78C294.69 47.78 291.44 43.63 290.4 41.6C290.33 41.46 290.3 41.36 290.3 41.22L290.29 41.21Z" fill="white"/>
<path d="M63.1102 82.3499C63.4902 82.3499 63.8002 82.5899 63.9002 82.8999C65.4902 87.0799 71.0902 90.4999 76.9902 90.4999C84.0402 90.4999 89.2902 86.7299 89.2902 79.4799C89.2902 72.6699 83.6202 70.7099 77.4102 68.5999C71.1602 66.5299 64.3202 64.2499 64.3202 56.0599C64.3202 49.3199 70.3002 45.6599 76.6902 45.6599C84.6002 45.6599 87.8802 49.5599 89.5402 53.9199C89.7502 54.4399 89.3702 55.0899 88.7502 55.0899C88.3702 55.0899 88.0602 54.8499 87.9602 54.5399C86.4402 50.5299 83.6402 47.3899 76.7002 47.3899C71.0702 47.3899 66.0602 50.4299 66.0602 56.0599C66.0602 62.9999 71.7302 64.8699 77.9802 66.9399C84.2002 69.0499 91.0402 71.4299 91.0402 79.4799C91.0402 87.5299 84.8902 92.2299 77.0102 92.2299C70.4502 92.2299 64.1902 88.4599 62.3302 83.5199C62.1202 82.9699 62.5002 82.3499 63.1202 82.3499H63.1102Z" fill="white"/>
<path d="M101.22 56.64C101.7 56.64 102.08 57.02 102.08 57.5C102.08 59.12 102.6 60.3301 103.15 61.5401C103.39 62.1301 103.7 62.85 103.88 63.51C105.02 63.2 106.02 61.4001 107.65 59.4701C109.07 57.7801 110.97 56.05 113.9 56.05C116.66 56.05 118.6 57.5401 119.88 59.6101C122.09 63.2701 122.54 69.21 122.54 73.64C122.54 80.07 121.47 84.94 119.78 87.77C118.12 90.5 115.88 91.71 113.56 91.71C110.62 91.71 109 89.84 107.65 88.25C106.34 86.7 105.34 85.1101 103.68 84.9001C103.54 85.9401 103.16 86.8301 102.89 87.6601C102.44 88.8301 102.1 89.94 102.1 92.74V103.21C102.1 103.69 101.72 104.07 101.24 104.07C100.76 104.07 100.38 103.69 100.38 103.21V92.74C100.38 89.67 100.86 88.2101 101.31 87.0401C101.69 85.9301 102.04 85.0701 102.04 83.9001C102.04 82.7901 101.66 81.9001 101.28 80.7201C100.83 79.4801 100.38 77.9201 100.38 75.3001V72.67C100.38 70.6 100.69 69.39 101.07 68.42C101.73 66.76 102.35 66.0401 102.35 64.7601C102.35 63.9701 102 63.2401 101.59 62.2401C101.04 61.0301 100.38 59.48 100.38 57.51C100.38 57.03 100.76 56.6501 101.24 56.6501L101.22 56.64ZM102.91 80.17C103.22 81.14 103.6 82.1 103.7 83.18C106.29 83.39 107.67 85.6301 108.95 87.1501C110.3 88.7401 111.44 89.9801 113.54 89.9801C115.3 89.9801 116.99 89.0501 118.31 86.8701C119.8 84.3801 120.8 79.79 120.8 73.64C120.8 69.32 120.42 63.83 118.42 60.51C117.35 58.78 115.97 57.78 113.89 57.78C111.71 57.78 110.23 59.0201 108.95 60.5801C107.4 62.4501 106.08 64.9 104.01 65.24C103.87 66.73 103.11 67.8301 102.63 69.0401C102.32 69.8701 102.08 70.8 102.08 72.67V75.3001C102.08 77.6501 102.46 78.93 102.91 80.17Z" fill="white"/>
<path d="M152.24 82.4501C152.9 82.4501 153.24 83.1101 153.07 83.5901C152.03 86.4901 148.99 91.6401 143.02 91.6401C135.01 91.6401 131.52 84.5901 131.52 78.8901C131.52 75.6801 133.21 73.9201 133.21 72.5701C133.21 70.9101 131.1 68.8401 131.72 65.4201C132.51 61.2101 136.11 55.8501 143.15 55.8501C149.68 55.8501 154.1 61.4101 154.1 67.2801C154.1 71.7701 151.51 73.3301 147.74 73.3301H134.85C134.5 74.9901 133.23 76.3701 133.23 78.8901C133.23 83.9701 136.24 89.9101 143.01 89.9101C147.88 89.9101 150.51 85.5901 151.41 83.0401C151.55 82.6601 151.86 82.4501 152.24 82.4501ZM134.83 71.6001H147.75C150.79 71.6001 152.38 70.6301 152.38 67.2801C152.38 62.2401 148.65 57.5701 143.16 57.5701C137.22 57.5701 134.11 62.1001 133.45 65.7601C132.97 68.3501 134.42 69.7301 134.83 71.6001Z" fill="white"/>
<path d="M181.81 81.9701C182.33 81.9701 182.74 82.4501 182.67 82.9701C182.22 85.9401 179.87 91.1601 173.07 91.1601C166.27 91.1601 162.05 85.01 162.05 73.09C162.05 61.17 167.09 56.3 172.66 56.3C178.23 56.3 181.19 59.55 181.75 64.25C181.82 64.77 181.44 65.2201 180.89 65.2201C180.44 65.2201 180.1 64.91 180.03 64.46C179.55 60.52 177.09 58.03 172.67 58.03C168.25 58.03 163.79 62.14 163.79 73.09C163.79 84.04 167.24 89.43 173.08 89.43C178.92 89.43 180.58 85.1801 180.96 82.6901C181.03 82.2401 181.37 81.96 181.82 81.96L181.81 81.9701Z" fill="white"/>
<path d="M202.5 57.5099C202.5 57.9899 202.12 58.3699 201.64 58.3699H194.39C196.01 60.4799 195.77 64.0399 195.77 66.6999V83.2499C195.77 85.4599 196.15 87.0799 196.94 88.1899C197.8 89.2999 199.25 89.8499 201.6 89.8499C202.08 89.8499 202.46 90.2299 202.46 90.7099C202.46 91.1899 202.08 91.5699 201.6 91.5699C198.84 91.5699 196.83 90.8799 195.55 89.2199C194.48 87.7699 194.03 85.7299 194.03 83.2399V66.6899C194.03 62.8599 194.38 58.7099 190.89 58.4299C190.51 58.3999 190.27 58.1499 190.16 57.8799C190.13 57.7799 190.09 57.6699 190.09 57.5699C190.09 57.1199 190.4 56.7399 190.88 56.7099C194.16 56.4699 194.09 51.7399 194.02 47.4899C194.02 47.0399 194.4 46.6299 194.88 46.6299C195.36 46.6299 195.74 47.0399 195.74 47.4899C195.77 50.3899 195.88 54.3999 194.29 56.6399H201.61C202.09 56.6399 202.47 57.0199 202.47 57.4999L202.5 57.5099Z" fill="white"/>
<path d="M235.95 90.4299C235.95 90.8799 235.67 91.2199 235.22 91.2899C233.32 91.5699 232.08 91.0099 231.28 90.1499C230.11 88.7999 230.24 87.2799 229.83 86.3199C229.52 85.6299 228.52 84.5599 228 83.3499C226.62 84.0799 225.69 85.3899 224.65 86.8399C223.06 89.1499 221.2 91.8099 217.08 91.8099C214.52 91.8099 212.59 90.8099 211.31 89.1799C209.79 87.3499 209.13 84.7899 209.13 82.0299C209.13 78.3999 210.13 75.6699 212.14 73.8099C214.39 71.6699 217.91 70.6999 222.33 70.6999H227.79C227.93 69.8699 228.34 69.0099 228.58 68.2499C228.79 67.5599 228.96 66.8999 228.96 66.0399C228.96 61.5499 226.3 57.6099 221.08 57.6099C217.35 57.6099 214.55 59.4399 213.34 63.1699C213.24 63.4799 212.89 63.7599 212.51 63.7599C211.85 63.7599 211.51 63.1399 211.68 62.6199C213.17 58.1299 216.65 55.8799 221.08 55.8799C227.4 55.8799 230.68 60.7199 230.68 66.0399C230.68 67.1099 230.44 68.0399 230.23 68.7299C229.85 69.8999 229.47 70.6299 229.47 71.3199C229.47 71.9099 229.78 72.3899 230.2 73.3199C230.55 74.0799 230.93 75.1899 230.93 76.5699C230.93 77.9499 230.45 79.0599 230.07 79.9599C229.69 80.8199 229.34 81.3799 229.45 82.2099C229.55 83.1099 230.9 84.4199 231.42 85.6299C231.97 86.9399 231.83 88.1199 232.59 88.9799C233.04 89.4999 233.66 89.7699 234.94 89.5699C235.46 89.4999 235.94 89.9199 235.94 90.4299H235.95ZM212.63 88.0799C213.63 89.3599 215.08 90.0799 217.09 90.0799C220.3 90.0799 221.68 88.1099 223.27 85.8699C224.38 84.2799 225.62 82.4799 227.73 81.5899C227.8 80.6599 228.25 79.8299 228.49 79.2799C228.87 78.3799 229.22 77.6199 229.22 76.5899C229.22 75.4799 228.98 74.7899 228.63 74.0299C228.42 73.5499 228.11 72.9899 227.94 72.4399H222.34C218.26 72.4399 215.22 73.2699 213.32 75.0699C211.73 76.5899 210.87 78.8399 210.87 82.0499C210.87 84.5399 211.46 86.6799 212.63 88.0999V88.0799Z" fill="white"/>
<path d="M255.08 57.5099C255.08 57.9899 254.7 58.3699 254.22 58.3699H246.97C248.59 60.4799 248.35 64.0399 248.35 66.6999V83.2499C248.35 85.4599 248.73 87.0799 249.52 88.1899C250.38 89.2999 251.83 89.8499 254.18 89.8499C254.66 89.8499 255.04 90.2299 255.04 90.7099C255.04 91.1899 254.66 91.5699 254.18 91.5699C251.42 91.5699 249.41 90.8799 248.13 89.2199C247.06 87.7699 246.61 85.7299 246.61 83.2399V66.6899C246.61 62.8599 246.96 58.7099 243.47 58.4299C243.09 58.3999 242.85 58.1499 242.74 57.8799C242.71 57.7799 242.67 57.6699 242.67 57.5699C242.67 57.1199 242.98 56.7399 243.46 56.7099C246.74 56.4699 246.67 51.7399 246.6 47.4899C246.6 47.0399 246.98 46.6299 247.46 46.6299C247.94 46.6299 248.32 47.0399 248.32 47.4899C248.35 50.3899 248.46 54.3999 246.87 56.6399H254.19C254.67 56.6399 255.05 57.0199 255.05 57.4999L255.08 57.5099Z" fill="white"/>
<path d="M262.75 73.9499C262.75 62.0699 266.86 56.1599 274.67 56.1599C282.48 56.1599 286.24 61.9299 286.24 73.9499C286.24 84.7299 282.61 91.8099 274.67 91.8099C265.96 91.8099 262.75 84.1799 262.75 73.9499ZM284.51 73.9499C284.51 62.8599 281.26 57.8899 274.66 57.8899C268.06 57.8899 264.47 62.9999 264.47 73.9499C264.47 83.6199 267.27 90.0799 274.66 90.0799C281.36 90.0799 284.51 83.9999 284.51 73.9499Z" fill="white"/>
<path d="M297.13 56.3301C297.61 56.3301 297.99 56.7101 297.99 57.1901C297.99 58.4301 298.34 59.5401 298.72 60.3001C299.07 60.9601 299.55 61.7501 299.76 62.8201C300.11 62.8501 300.38 62.7501 300.87 62.3701C301.8 61.6401 303.12 58.7101 304.88 57.8401C306.16 57.2201 307.68 57.4901 308.89 58.0501C309.2 58.1901 309.37 58.4601 309.37 58.8101C309.37 59.2901 308.99 59.6701 308.51 59.6701C308.37 59.6701 308.23 59.6401 308.16 59.6001C307.26 59.1901 306.29 59.0501 305.64 59.3601C304.4 59.9801 303.22 62.7101 301.98 63.7501C301.36 64.2301 300.6 64.5401 299.77 64.5101C299.63 65.5101 299.25 66.3101 298.91 67.2001C298.43 68.4401 298.01 69.9601 298.01 72.9701V90.5901C298.01 91.0701 297.63 91.4501 297.15 91.4501C296.67 91.4501 296.29 91.0701 296.29 90.5901V72.9701C296.29 69.7601 296.84 67.8201 297.33 66.5801C297.78 65.3701 298.12 64.7101 298.12 63.7101C298.12 62.7101 297.74 62.0501 297.22 61.0501C296.77 60.1501 296.29 58.7001 296.29 57.1801C296.29 56.7001 296.67 56.3201 297.15 56.3201L297.13 56.3301Z" fill="white"/>
</g>
<defs>
<clipPath id="clip0_464_200">
<rect width="311.75" height="104.08" fill="white"/>
</clipPath>
</defs>
</svg>
