<svg width="312" height="105" viewBox="0 0 312 105" fill="none" xmlns="http://www.w3.org/2000/svg">
<g clip-path="url(#clip0_464_179)">
<path d="M0.86 47.5C0.38 47.5 0 47.12 0 46.64V31.37C0 28.5 1.17 26.81 2.18 25.6C3.15 24.46 3.8 23.8 3.8 22.91C3.8 21.94 2.76 21.18 1.59 19.28C0.76 17.93 0 16.14 0 13.48V3.31996C0 2.83996 0.38 2.45996 0.86 2.45996C1.34 2.45996 1.72 2.83996 1.72 3.31996V13.48C1.72 15.73 2.34 17.25 3.03 18.39C3.86 19.74 5.1 20.84 5.45 22.22H23.31C23.79 20.84 25.07 19.77 25.94 18.21C26.53 17.14 26.94 15.83 26.94 13.96V3.31996C26.94 2.83996 27.32 2.45996 27.8 2.45996C28.28 2.45996 28.66 2.83996 28.66 3.31996V13.96C28.66 16.17 28.11 17.83 27.45 19.04C26.28 21.18 24.86 22.18 24.86 23.25C24.86 24.22 25.62 24.87 26.66 26.12C27.59 27.29 28.66 28.99 28.66 31.72V46.64C28.66 47.12 28.28 47.5 27.8 47.5C27.32 47.5 26.94 47.12 26.94 46.64V31.72C26.94 29.54 26.18 28.3 25.35 27.23C24.52 26.23 23.48 25.3 23.21 23.95H5.35C5 25.09 4.21 25.85 3.48 26.71C2.55 27.85 1.72 29.06 1.72 31.37V46.64C1.72 47.12 1.34 47.5 0.86 47.5Z" fill="black"/>
<path d="M39.3799 29.95C39.3799 18.07 43.4899 12.16 51.2999 12.16C59.1099 12.16 62.8699 17.93 62.8699 29.95C62.8699 40.73 59.2399 47.81 51.2999 47.81C42.5899 47.81 39.3799 40.18 39.3799 29.95ZM61.1399 29.95C61.1399 18.86 57.8899 13.89 51.2899 13.89C44.6899 13.89 41.0999 19 41.0999 29.95C41.0999 39.62 43.8999 46.08 51.2899 46.08C57.9899 46.08 61.1399 40 61.1399 29.95Z" fill="black"/>
<path d="M73.7599 12.23C74.2399 12.23 74.6199 12.61 74.6199 13.09C74.6199 14.33 74.9699 15.44 75.3499 16.2C75.6999 16.86 76.1099 17.55 76.3199 18.51C77.2199 17.78 77.7699 16.61 78.4999 15.5C79.6099 13.77 80.8799 12.18 83.7899 12.18C86.6999 12.18 88.0399 14.91 89.0099 17.05C89.9099 19.16 90.5599 20.68 92.0499 20.68C93.0499 20.68 93.8799 18.64 95.4699 16.26C96.7799 14.22 99.0299 12.15 102.03 12.15C105.62 12.15 107.7 14.19 108.7 17.23C109.74 20.27 109.81 24.48 109.81 28.7V46.66C109.81 47.14 109.43 47.52 108.95 47.52C108.47 47.52 108.09 47.14 108.09 46.66V28.7C108.09 24.49 108.02 20.62 107.05 17.78C106.26 15.36 104.74 13.88 102.04 13.88C99.7899 13.88 98.0999 15.4 96.9299 17.23C95.6899 19.1 94.6499 21.55 92.9599 22.24V46.66C92.9599 47.14 92.5799 47.52 92.0999 47.52C91.6199 47.52 91.2399 47.14 91.2399 46.66V22.31C89.1999 21.86 88.2299 19.62 87.4399 17.75C86.4699 15.61 85.6799 13.92 83.8099 13.92C81.8099 13.92 81.0099 14.89 79.9799 16.48C79.2199 17.62 78.3899 19.59 76.4199 20.49C76.2799 21.42 75.8999 22.25 75.5599 23.12C75.0799 24.36 74.6599 25.88 74.6599 28.89V46.51C74.6599 46.99 74.2799 47.37 73.7999 47.37C73.3199 47.37 72.9399 46.99 72.9399 46.51V28.89C72.9399 25.68 73.4899 23.74 73.9799 22.5C74.4299 21.29 74.7699 20.63 74.7699 19.63C74.7699 18.63 74.3899 17.97 73.8699 16.97C73.4199 16.07 72.9399 14.62 72.9399 13.1C72.9399 12.62 73.3199 12.24 73.7999 12.24L73.7599 12.23Z" fill="black"/>
<path d="M119.81 29.95C119.81 18.07 123.92 12.16 131.73 12.16C139.54 12.16 143.3 17.93 143.3 29.95C143.3 40.73 139.67 47.81 131.73 47.81C123.02 47.81 119.81 40.18 119.81 29.95ZM141.57 29.95C141.57 18.86 138.32 13.89 131.72 13.89C125.12 13.89 121.53 19 121.53 29.95C121.53 39.62 124.33 46.08 131.72 46.08C138.42 46.08 141.57 40 141.57 29.95Z" fill="black"/>
<path d="M154.18 12.23C154.66 12.23 155.04 12.61 155.04 13.09C155.04 14.33 155.39 15.44 155.77 16.2C156.05 16.72 156.36 17.27 156.6 18C159.26 15.69 161.44 12.16 166.13 12.16C173.38 12.16 174.25 18.41 174.25 26.67V46.5C174.25 46.98 173.87 47.36 173.39 47.36C172.91 47.36 172.53 46.98 172.53 46.5V26.67C172.53 18.76 171.87 13.89 166.14 13.89C161.82 13.89 160.54 17.31 156.88 19.97C156.81 21.21 156.36 22.08 155.95 23.11C155.47 24.35 155.05 25.87 155.05 28.88V46.5C155.05 46.98 154.67 47.36 154.19 47.36C153.71 47.36 153.33 46.98 153.33 46.5V28.88C153.33 25.67 153.88 23.73 154.37 22.49C154.82 21.28 155.16 20.62 155.16 19.62C155.16 18.62 154.78 17.96 154.26 16.96C153.81 16.06 153.33 14.61 153.33 13.09C153.33 12.61 153.71 12.23 154.19 12.23H154.18Z" fill="black"/>
<path d="M204.03 37.9701C204.55 37.9701 204.96 38.4501 204.89 38.9701C204.44 41.9401 202.09 47.16 195.29 47.16C188.49 47.16 184.27 41.01 184.27 29.09C184.27 17.17 189.31 12.3 194.88 12.3C200.45 12.3 203.41 15.55 203.97 20.25C204.04 20.77 203.66 21.22 203.11 21.22C202.66 21.22 202.32 20.91 202.25 20.46C201.77 16.52 199.31 14.03 194.89 14.03C190.47 14.03 186.01 18.14 186.01 29.09C186.01 40.04 189.46 45.43 195.3 45.43C201.14 45.43 202.8 41.18 203.18 38.69C203.25 38.24 203.59 37.96 204.04 37.96L204.03 37.9701Z" fill="black"/>
<path d="M214.74 12.78C215.22 12.78 215.6 13.16 215.6 13.64V33.02C215.6 40.93 216.26 45.8 221.92 45.8C226.27 45.8 227.76 42.21 231.32 39.69C231.46 38.76 231.84 37.93 232.18 37.06C232.66 35.82 233.08 34.3 233.08 31.29V13.68C233.08 13.2 233.46 12.82 233.94 12.82C234.42 12.82 234.8 13.2 234.8 13.68V31.3C234.8 34.51 234.25 36.45 233.76 37.69C233.31 38.9 232.97 39.56 232.97 40.56C232.97 41.56 233.35 42.22 233.87 43.22C234.32 44.12 234.8 45.57 234.8 47.09C234.8 47.57 234.42 47.95 233.94 47.95C233.46 47.95 233.08 47.57 233.08 47.09C233.08 45.85 232.73 44.74 232.35 43.98C232.04 43.39 231.62 42.7 231.38 41.8C228.82 44.08 226.68 47.53 221.91 47.53C214.72 47.53 213.86 41.28 213.86 33.02V13.65C213.86 13.17 214.24 12.79 214.72 12.79L214.74 12.78Z" fill="black"/>
<path d="M247.42 47.81C246.94 47.81 246.56 47.43 246.56 46.95V0.86C246.56 0.38 246.94 0 247.42 0C247.9 0 248.28 0.38 248.28 0.86V46.94C248.28 47.42 247.9 47.8 247.42 47.8V47.81Z" fill="black"/>
<path d="M260.89 12.78C261.37 12.78 261.75 13.16 261.75 13.64V33.02C261.75 40.93 262.41 45.8 268.07 45.8C272.42 45.8 273.91 42.21 277.47 39.69C277.61 38.76 277.99 37.93 278.33 37.06C278.81 35.82 279.23 34.3 279.23 31.29V13.68C279.23 13.2 279.61 12.82 280.09 12.82C280.57 12.82 280.95 13.2 280.95 13.68V31.3C280.95 34.51 280.4 36.45 279.91 37.69C279.46 38.9 279.12 39.56 279.12 40.56C279.12 41.56 279.5 42.22 280.02 43.22C280.47 44.12 280.95 45.57 280.95 47.09C280.95 47.57 280.57 47.95 280.09 47.95C279.61 47.95 279.23 47.57 279.23 47.09C279.23 45.85 278.88 44.74 278.5 43.98C278.19 43.39 277.77 42.7 277.53 41.8C274.97 44.08 272.83 47.53 268.06 47.53C260.87 47.53 260.01 41.28 260.01 33.02V13.65C260.01 13.17 260.39 12.79 260.87 12.79L260.89 12.78Z" fill="black"/>
<path d="M290.29 41.21C290.29 40.73 290.67 40.35 291.15 40.35C291.5 40.35 291.77 40.56 291.91 40.83C292.81 42.59 295.64 46.05 300.93 46.05C305.32 46.05 310.15 43.49 310.02 38.21C309.88 33.03 305.46 31.72 300.66 29.99C296.17 28.37 291.47 26.4 291.47 20.32C291.47 15.28 295.62 12.1 301.11 12.2C306.22 12.3 309.57 15.52 310.44 18.87C310.58 19.39 310.16 19.94 309.61 19.94C309.2 19.94 308.88 19.7 308.78 19.28C308.05 16.55 305.39 14.03 301.04 13.93C296.38 13.83 293.2 16.38 293.2 20.32C293.2 25.23 296.93 26.78 301.21 28.33C306.01 30.06 311.61 31.78 311.75 38.14C311.89 44.57 306.05 47.78 300.94 47.78C294.69 47.78 291.44 43.63 290.4 41.6C290.33 41.46 290.3 41.36 290.3 41.22L290.29 41.21Z" fill="black"/>
<path d="M63.1102 82.35C63.4902 82.35 63.8002 82.59 63.9002 82.9C65.4902 87.08 71.0902 90.5 76.9902 90.5C84.0402 90.5 89.2902 86.73 89.2902 79.48C89.2902 72.67 83.6202 70.71 77.4102 68.6C71.1602 66.53 64.3202 64.25 64.3202 56.06C64.3202 49.32 70.3002 45.66 76.6902 45.66C84.6002 45.66 87.8802 49.56 89.5402 53.92C89.7502 54.44 89.3702 55.09 88.7502 55.09C88.3702 55.09 88.0602 54.85 87.9602 54.54C86.4402 50.53 83.6402 47.39 76.7002 47.39C71.0702 47.39 66.0602 50.43 66.0602 56.06C66.0602 63 71.7302 64.87 77.9802 66.94C84.2002 69.05 91.0402 71.43 91.0402 79.48C91.0402 87.53 84.8902 92.23 77.0102 92.23C70.4502 92.23 64.1902 88.46 62.3302 83.52C62.1202 82.97 62.5002 82.35 63.1202 82.35H63.1102Z" fill="black"/>
<path d="M101.22 56.64C101.7 56.64 102.08 57.02 102.08 57.5C102.08 59.12 102.6 60.3301 103.15 61.5401C103.39 62.1301 103.7 62.85 103.88 63.51C105.02 63.2 106.02 61.4001 107.65 59.4701C109.07 57.7801 110.97 56.05 113.9 56.05C116.66 56.05 118.6 57.5401 119.88 59.6101C122.09 63.2701 122.54 69.21 122.54 73.64C122.54 80.07 121.47 84.94 119.78 87.77C118.12 90.5 115.88 91.71 113.56 91.71C110.62 91.71 109 89.84 107.65 88.25C106.34 86.7 105.34 85.1101 103.68 84.9001C103.54 85.9401 103.16 86.8301 102.89 87.6601C102.44 88.8301 102.1 89.94 102.1 92.74V103.21C102.1 103.69 101.72 104.07 101.24 104.07C100.76 104.07 100.38 103.69 100.38 103.21V92.74C100.38 89.67 100.86 88.2101 101.31 87.0401C101.69 85.9301 102.04 85.0701 102.04 83.9001C102.04 82.7901 101.66 81.9001 101.28 80.7201C100.83 79.4801 100.38 77.9201 100.38 75.3001V72.67C100.38 70.6 100.69 69.39 101.07 68.42C101.73 66.76 102.35 66.0401 102.35 64.7601C102.35 63.9701 102 63.2401 101.59 62.2401C101.04 61.0301 100.38 59.48 100.38 57.51C100.38 57.03 100.76 56.6501 101.24 56.6501L101.22 56.64ZM102.91 80.17C103.22 81.14 103.6 82.1 103.7 83.18C106.29 83.39 107.67 85.6301 108.95 87.1501C110.3 88.7401 111.44 89.9801 113.54 89.9801C115.3 89.9801 116.99 89.0501 118.31 86.8701C119.8 84.3801 120.8 79.79 120.8 73.64C120.8 69.32 120.42 63.83 118.42 60.51C117.35 58.78 115.97 57.78 113.89 57.78C111.71 57.78 110.23 59.0201 108.95 60.5801C107.4 62.4501 106.08 64.9 104.01 65.24C103.87 66.73 103.11 67.8301 102.63 69.0401C102.32 69.8701 102.08 70.8 102.08 72.67V75.3001C102.08 77.6501 102.46 78.93 102.91 80.17Z" fill="black"/>
<path d="M152.24 82.45C152.9 82.45 153.24 83.11 153.07 83.59C152.03 86.49 148.99 91.64 143.02 91.64C135.01 91.64 131.52 84.59 131.52 78.89C131.52 75.68 133.21 73.92 133.21 72.57C133.21 70.91 131.1 68.84 131.72 65.42C132.51 61.21 136.11 55.85 143.15 55.85C149.68 55.85 154.1 61.41 154.1 67.28C154.1 71.77 151.51 73.33 147.74 73.33H134.85C134.5 74.99 133.23 76.37 133.23 78.89C133.23 83.97 136.24 89.91 143.01 89.91C147.88 89.91 150.51 85.59 151.41 83.04C151.55 82.66 151.86 82.45 152.24 82.45ZM134.83 71.6H147.75C150.79 71.6 152.38 70.63 152.38 67.28C152.38 62.24 148.65 57.57 143.16 57.57C137.22 57.57 134.11 62.1 133.45 65.76C132.97 68.35 134.42 69.73 134.83 71.6Z" fill="black"/>
<path d="M181.81 81.9701C182.33 81.9701 182.74 82.4501 182.67 82.9701C182.22 85.9401 179.87 91.1601 173.07 91.1601C166.27 91.1601 162.05 85.01 162.05 73.09C162.05 61.17 167.09 56.3 172.66 56.3C178.23 56.3 181.19 59.55 181.75 64.25C181.82 64.77 181.44 65.2201 180.89 65.2201C180.44 65.2201 180.1 64.91 180.03 64.46C179.55 60.52 177.09 58.03 172.67 58.03C168.25 58.03 163.79 62.14 163.79 73.09C163.79 84.04 167.24 89.43 173.08 89.43C178.92 89.43 180.58 85.1801 180.96 82.6901C181.03 82.2401 181.37 81.96 181.82 81.96L181.81 81.9701Z" fill="black"/>
<path d="M202.5 57.51C202.5 57.99 202.12 58.37 201.64 58.37H194.39C196.01 60.48 195.77 64.04 195.77 66.7V83.25C195.77 85.46 196.15 87.08 196.94 88.19C197.8 89.3 199.25 89.85 201.6 89.85C202.08 89.85 202.46 90.23 202.46 90.71C202.46 91.19 202.08 91.57 201.6 91.57C198.84 91.57 196.83 90.88 195.55 89.22C194.48 87.77 194.03 85.73 194.03 83.24V66.69C194.03 62.86 194.38 58.71 190.89 58.43C190.51 58.4 190.27 58.15 190.16 57.88C190.13 57.78 190.09 57.67 190.09 57.57C190.09 57.12 190.4 56.74 190.88 56.71C194.16 56.47 194.09 51.74 194.02 47.49C194.02 47.04 194.4 46.63 194.88 46.63C195.36 46.63 195.74 47.04 195.74 47.49C195.77 50.39 195.88 54.4 194.29 56.64H201.61C202.09 56.64 202.47 57.02 202.47 57.5L202.5 57.51Z" fill="black"/>
<path d="M235.95 90.43C235.95 90.88 235.67 91.22 235.22 91.29C233.32 91.57 232.08 91.01 231.28 90.15C230.11 88.8 230.24 87.28 229.83 86.32C229.52 85.63 228.52 84.56 228 83.35C226.62 84.08 225.69 85.39 224.65 86.84C223.06 89.15 221.2 91.81 217.08 91.81C214.52 91.81 212.59 90.81 211.31 89.18C209.79 87.35 209.13 84.79 209.13 82.03C209.13 78.4 210.13 75.67 212.14 73.81C214.39 71.67 217.91 70.7 222.33 70.7H227.79C227.93 69.87 228.34 69.01 228.58 68.25C228.79 67.56 228.96 66.9 228.96 66.04C228.96 61.55 226.3 57.61 221.08 57.61C217.35 57.61 214.55 59.44 213.34 63.17C213.24 63.48 212.89 63.76 212.51 63.76C211.85 63.76 211.51 63.14 211.68 62.62C213.17 58.13 216.65 55.88 221.08 55.88C227.4 55.88 230.68 60.72 230.68 66.04C230.68 67.11 230.44 68.04 230.23 68.73C229.85 69.9 229.47 70.63 229.47 71.32C229.47 71.91 229.78 72.39 230.2 73.32C230.55 74.08 230.93 75.19 230.93 76.57C230.93 77.95 230.45 79.06 230.07 79.96C229.69 80.82 229.34 81.38 229.45 82.21C229.55 83.11 230.9 84.42 231.42 85.63C231.97 86.94 231.83 88.12 232.59 88.98C233.04 89.5 233.66 89.77 234.94 89.57C235.46 89.5 235.94 89.92 235.94 90.43H235.95ZM212.63 88.08C213.63 89.36 215.08 90.08 217.09 90.08C220.3 90.08 221.68 88.11 223.27 85.87C224.38 84.28 225.62 82.48 227.73 81.59C227.8 80.66 228.25 79.83 228.49 79.28C228.87 78.38 229.22 77.62 229.22 76.59C229.22 75.48 228.98 74.79 228.63 74.03C228.42 73.55 228.11 72.99 227.94 72.44H222.34C218.26 72.44 215.22 73.27 213.32 75.07C211.73 76.59 210.87 78.84 210.87 82.05C210.87 84.54 211.46 86.68 212.63 88.1V88.08Z" fill="black"/>
<path d="M255.08 57.51C255.08 57.99 254.7 58.37 254.22 58.37H246.97C248.59 60.48 248.35 64.04 248.35 66.7V83.25C248.35 85.46 248.73 87.08 249.52 88.19C250.38 89.3 251.83 89.85 254.18 89.85C254.66 89.85 255.04 90.23 255.04 90.71C255.04 91.19 254.66 91.57 254.18 91.57C251.42 91.57 249.41 90.88 248.13 89.22C247.06 87.77 246.61 85.73 246.61 83.24V66.69C246.61 62.86 246.96 58.71 243.47 58.43C243.09 58.4 242.85 58.15 242.74 57.88C242.71 57.78 242.67 57.67 242.67 57.57C242.67 57.12 242.98 56.74 243.46 56.71C246.74 56.47 246.67 51.74 246.6 47.49C246.6 47.04 246.98 46.63 247.46 46.63C247.94 46.63 248.32 47.04 248.32 47.49C248.35 50.39 248.46 54.4 246.87 56.64H254.19C254.67 56.64 255.05 57.02 255.05 57.5L255.08 57.51Z" fill="black"/>
<path d="M262.75 73.95C262.75 62.07 266.86 56.16 274.67 56.16C282.48 56.16 286.24 61.93 286.24 73.95C286.24 84.73 282.61 91.81 274.67 91.81C265.96 91.81 262.75 84.18 262.75 73.95ZM284.51 73.95C284.51 62.86 281.26 57.89 274.66 57.89C268.06 57.89 264.47 63 264.47 73.95C264.47 83.62 267.27 90.08 274.66 90.08C281.36 90.08 284.51 84 284.51 73.95Z" fill="black"/>
<path d="M297.13 56.3299C297.61 56.3299 297.99 56.7099 297.99 57.1899C297.99 58.4299 298.34 59.5399 298.72 60.2999C299.07 60.9599 299.55 61.7499 299.76 62.8199C300.11 62.8499 300.38 62.7499 300.87 62.3699C301.8 61.6399 303.12 58.7099 304.88 57.8399C306.16 57.2199 307.68 57.4899 308.89 58.0499C309.2 58.1899 309.37 58.4599 309.37 58.8099C309.37 59.2899 308.99 59.6699 308.51 59.6699C308.37 59.6699 308.23 59.6399 308.16 59.5999C307.26 59.1899 306.29 59.0499 305.64 59.3599C304.4 59.9799 303.22 62.7099 301.98 63.7499C301.36 64.2299 300.6 64.5399 299.77 64.5099C299.63 65.5099 299.25 66.3099 298.91 67.1999C298.43 68.4399 298.01 69.9599 298.01 72.9699V90.5899C298.01 91.0699 297.63 91.4499 297.15 91.4499C296.67 91.4499 296.29 91.0699 296.29 90.5899V72.9699C296.29 69.7599 296.84 67.8199 297.33 66.5799C297.78 65.3699 298.12 64.7099 298.12 63.7099C298.12 62.7099 297.74 62.0499 297.22 61.0499C296.77 60.1499 296.29 58.6999 296.29 57.1799C296.29 56.6999 296.67 56.3199 297.15 56.3199L297.13 56.3299Z" fill="black"/>
</g>
<defs>
<clipPath id="clip0_464_179">
<rect width="311.75" height="104.08" fill="white"/>
</clipPath>
</defs>
</svg>
